<?xml version="1.0" encoding="UTF-8" standalone="no"?>
<!DOCTYPE svg PUBLIC "-//W3C//DTD SVG 1.1//EN" "http://www.w3.org/Graphics/SVG/1.1/DTD/svg11.dtd">
<svg version="1.1" xmlns="http://www.w3.org/2000/svg" xmlns:xlink="http://www.w3.org/1999/xlink" preserveAspectRatio="xMidYMid meet" viewBox="0 0 640 640" width="640" height="640"><defs><path d="M332.33 607.87L370.67 615.32L294 615.32L217.33 615.32L255.66 607.87L294 600.43L332.33 607.87Z" id="clYL9UjIv"></path><path d="M290 377.02L300 377.02L300 606.67L290 606.67L290 377.02Z" id="b13Dx2MWUN"></path><path d="M570 108.94C570 166.48 521.91 213.19 462.67 213.19C403.43 213.19 355.33 166.48 355.33 108.94C355.33 51.4 403.43 4.68 462.67 4.68C521.91 4.68 570 51.4 570 108.94Z" id="cLePJQZOh"></path><path d="M561.69 110.55C561.69 163.63 517.32 206.73 462.67 206.73C408.02 206.73 363.65 163.63 363.65 110.55C363.65 57.47 408.02 14.37 462.67 14.37C517.32 14.37 561.69 57.47 561.69 110.55Z" id="e1JR1dwbOO"></path><path d="M202.37 269.22L110 154.73L294 154.17L478 153.62L386.38 268.67L294.74 383.72L202.37 269.22Z" id="b6Ue2sleL"></path><path d="M211.32 266.51L127.99 163.03L294 162.53L460.01 162.03L377.35 266.01L294.67 369.99L211.32 266.51Z" id="c46GZnyzLL"></path><path d="M230.02 272.91L165.86 193.93L294 193.79L422.14 193.64L358.17 272.77L294.19 351.89L230.02 272.91Z" id="a26O10CVQ"></path></defs><g><g><g><use xlink:href="#clYL9UjIv" opacity="1" fill="#3d5a80" fill-opacity="1"></use></g><g><use xlink:href="#b13Dx2MWUN" opacity="1" fill="#3d5a80" fill-opacity="1"></use></g><g><use xlink:href="#cLePJQZOh" opacity="1" fill="#ffda0a" fill-opacity="1"></use></g><g><use xlink:href="#e1JR1dwbOO" opacity="1" fill="#ffe762" fill-opacity="1"></use></g><g><use xlink:href="#b6Ue2sleL" opacity="1" fill="#3d5a80" fill-opacity="1"></use></g><g><use xlink:href="#c46GZnyzLL" opacity="1" fill="#ffffff" fill-opacity="1"></use></g><g><use xlink:href="#a26O10CVQ" opacity="1" fill="#3ed2f4" fill-opacity="1"></use></g></g></g></svg>